<?xml version="1.0" encoding="utf-8"?>
<!-- Generator: Adobe Illustrator 26.0.1, SVG Export Plug-In . SVG Version: 6.00 Build 0)  -->
<svg version="1.1" id="Layer_1" xmlns="http://www.w3.org/2000/svg" xmlns:xlink="http://www.w3.org/1999/xlink" x="0px" y="0px"
	 viewBox="0 0 34.8 34.8" style="enable-background:new 0 0 34.8 34.8;" xml:space="preserve">
<style type="text/css">
	.st0{clip-path:url(#SVGID_00000183940163352400050530000017715864412812596895_);}
	.st1{fill:#191919;}
	.st2{fill:none;stroke:#191919;stroke-width:2;stroke-linecap:round;stroke-linejoin:round;}
</style>
<g id="Group_122" transform="translate(1 1)">
	<g id="Group_120" transform="translate(6 8)">
		<g>
			<defs>
				<rect id="SVGID_1_" y="-0.4" width="21" height="17"/>
			</defs>
			<clipPath id="SVGID_00000067219198249177667570000006674173243499017395_">
				<use xlink:href="#SVGID_1_"  style="overflow:visible;"/>
			</clipPath>
			
				<g id="Group_119" transform="translate(0 0)" style="clip-path:url(#SVGID_00000067219198249177667570000006674173243499017395_);">
				<g id="Group_118" transform="translate(0 0.648)">
					<path id="Path_18" class="st1" d="M18,1.3c-1.4-0.6-2.8-1.1-4.3-1.3c0,0-0.1,0-0.1,0c-0.2,0.4-0.4,0.7-0.5,1.1
						c-1.6-0.2-3.3-0.2-4.9,0C8,0.8,7.9,0.4,7.7,0c0,0,0,0-0.1,0c-1.5,0.3-3,0.7-4.3,1.3c0,0,0,0,0,0C0.8,4.9-0.4,9.2,0.1,13.5
						c0,0,0,0,0,0.1c1.6,1.2,3.4,2.1,5.3,2.7c0,0,0.1,0,0.1,0c0.4-0.6,0.8-1.1,1.1-1.8c0,0,0-0.1,0-0.1c0,0,0,0,0,0
						c-0.6-0.2-1.1-0.5-1.7-0.8c0,0,0-0.1,0-0.1c0,0,0,0,0,0c0.1-0.1,0.2-0.2,0.3-0.3c0,0,0,0,0.1,0c3.4,1.6,7.3,1.6,10.7,0
						c0,0,0.1,0,0.1,0c0.1,0.1,0.2,0.2,0.3,0.3c0,0,0,0.1,0,0.1c0,0,0,0,0,0c-0.5,0.3-1.1,0.6-1.7,0.8c0,0-0.1,0.1,0,0.1
						c0,0,0,0,0,0c0.3,0.6,0.7,1.2,1.1,1.8c0,0,0,0,0.1,0c1.9-0.6,3.7-1.5,5.3-2.7c0,0,0,0,0,0C21.6,9.2,20.5,4.9,18,1.3
						C18,1.4,18,1.3,18,1.3z M7.1,11.1C6,11,5.1,10,5.2,8.9C5.1,7.8,6,6.8,7.1,6.8c1.1,0.1,2,1,1.9,2.1c0,0,0,0,0,0
						C9.1,10,8.2,11,7.1,11.1L7.1,11.1z M14.2,11.1c-1.1-0.1-2-1-1.9-2.1c-0.1-1.1,0.8-2.1,1.9-2.1c1.1,0.1,2,1,1.9,2.1c0,0,0,0,0,0
						C16.1,10,15.3,11,14.2,11.1C14.2,11.1,14.2,11.1,14.2,11.1L14.2,11.1z"/>
				</g>
			</g>
		</g>
	</g>
	<g id="Group_121">
		<path id="Rectangle_89" class="st2" d="M3,0h26.8c1.7,0,3,1.3,3,3v26.8c0,1.7-1.3,3-3,3H3c-1.7,0-3-1.3-3-3V3C0,1.3,1.3,0,3,0z"/>
	</g>
</g>
</svg>
