<?xml version="1.0" encoding="utf-8"?>
<!-- Generator: Adobe Illustrator 26.0.1, SVG Export Plug-In . SVG Version: 6.00 Build 0)  -->
<svg version="1.1" id="Layer_1" xmlns="http://www.w3.org/2000/svg" xmlns:xlink="http://www.w3.org/1999/xlink" x="0px" y="0px"
	 viewBox="0 0 34.8 34.8" style="enable-background:new 0 0 34.8 34.8;" xml:space="preserve">
<style type="text/css">
	.st0{fill:none;stroke:#191919;stroke-width:2;stroke-linecap:round;stroke-linejoin:round;}
	.st1{fill:#1A1A1A;}
</style>
<g id="Group_115" transform="translate(1 1)">
	<path id="Rectangle_91" class="st0" d="M3,0h26.8c1.7,0,3,1.3,3,3v26.8c0,1.7-1.3,3-3,3H3c-1.7,0-3-1.3-3-3V3C0,1.3,1.3,0,3,0z"/>
	<path id="Path_14" class="st1" d="M22.1,10.2h2V5.9h-3c-4.3,0-6.3,2.6-6.3,6.2v3.4h-3.4v4.2h3.4v10.6h5V19.6h3.4l1-4.2h-4.3v-2.8
		c-0.1-1.2,0.8-2.3,2-2.4C21.9,10.2,22,10.2,22.1,10.2z"/>
</g>
</svg>
