<svg xmlns="http://www.w3.org/2000/svg" width="142" height="142" viewBox="0 0 142 142"><defs><clipPath id="qgvoa"><path d="M31 115.46V27h80.462v88.46z"/></clipPath></defs><g><g><g><path fill="#fbfbfb" d="M71 0c39.212 0 71 31.788 71 71s-31.788 71-71 71S0 110.212 0 71 31.788 0 71 0z"/></g><g><g><g/><g clip-path="url(#qgvoa)"><path d="M78.319 113.41h-14.12V93.521a3.466 3.466 0 0 1 3.462-3.462h7.196a3.466 3.466 0 0 1 3.462 3.462zm-3.462-25.351h-7.196a5.469 5.469 0 0 0-5.462 5.462v19.939h18.12V93.521a5.469 5.469 0 0 0-5.462-5.462"/></g><g clip-path="url(#qgvoa)"><path d="M88.371 76.765a5.468 5.468 0 0 0-5.462 5.461v2.986a1 1 0 0 0 1 1h9.125a1 1 0 0 0 1-1v-2.986a5.468 5.468 0 0 0-5.462-5.461zm3.663 5.461v1.986h-7.125v-1.986a3.466 3.466 0 0 1 3.462-3.461h.201a3.466 3.466 0 0 1 3.462 3.461"/></g><g clip-path="url(#qgvoa)"><path d="M56.594 84.212H49.47v-1.986a3.465 3.465 0 0 1 3.462-3.461h.201a3.465 3.465 0 0 1 3.461 3.461zm-3.461-7.447h-.201a5.468 5.468 0 0 0-5.462 5.461v2.986a1 1 0 0 0 1 1h9.124a1 1 0 0 0 1-1v-2.986a5.467 5.467 0 0 0-5.461-5.461"/></g><g clip-path="url(#qgvoa)"><path d="M111.324 72.483L98.649 50.921a1 1 0 0 0-.862-.493H95.51l.004.152h.993a1 1 0 0 1 1 1c0 .433-.012.863-.032 1.291l11.239 19.119h-7.552a1 1 0 0 0-1 1v38.301c0 1.7-1.786 2.101-2.177 2.169H44.951c-.985 0-1.705-.231-2.141-.685-.54-.563-.512-1.352-.51-1.415V72.99a1 1 0 0 0-1-1h-7.528l11.812-19.562h.276c-.009-.282-.021-.564-.021-.848a1 1 0 0 1 1-1h.992l.004-.152h-2.816a1 1 0 0 0-.856.484l-13.02 21.561A1.001 1.001 0 0 0 32 73.99h8.3l.002 37.304c-.011.165-.076 1.646 1.034 2.833.828.884 2.044 1.333 3.615 1.333h53.111a.976.976 0 0 0 .132-.009c1.372-.183 3.968-1.288 3.968-4.16V73.99h8.3a1 1 0 0 0 .862-1.507"/></g><g clip-path="url(#qgvoa)"><path d="M71.673 76.019c-12.815 0-23.301-10.425-23.814-23.438h47.628c-.513 13.013-10.999 23.438-23.814 23.438m22.862-23.601H48.811a1 1 0 0 1-1-1c0-.281.011-.559.021-.837h-.993a1 1 0 0 0-1 1c0 .284.012.566.021.848.44 14.186 11.846 25.59 25.813 25.59 13.822 0 25.142-11.167 25.802-25.148.02-.427.032-.858.032-1.29a1 1 0 0 0-1-1h-.993c.01.278.021.556.021.837a1 1 0 0 1-1 1"/></g><g clip-path="url(#qgvoa)"><path d="M71.673 29c11.729 0 21.329 9.519 21.841 21.418H49.832C50.344 38.519 59.944 29 71.673 29M47.811 51.418a1 1 0 0 0 1 1h45.724a1 1 0 0 0 1-1c0-.281-.011-.559-.021-.838-.001-.05-.001-.101-.003-.151C95.001 37.422 84.507 27 71.673 27c-12.834 0-23.328 10.422-23.838 23.429-.002.05-.002.101-.003.151-.01.279-.021.557-.021.838"/></g><g clip-path="url(#qgvoa)"><path d="M76.901 66.444c0 .582-.163 1.053-.489 1.414-.326.361-.78.541-1.362.541-.558 0-1-.18-1.326-.541-.326-.361-.489-.832-.489-1.414 0-.558.163-1.013.489-1.362.326-.349.768-.523 1.326-.523.582 0 1.036.174 1.362.523.326.349.489.804.489 1.362m-4.224-2.268c-.652.605-.978 1.361-.978 2.268 0 .931.326 1.699.978 2.304.651.606 1.442.908 2.373.908.954 0 1.747-.302 2.374-.908.628-.605.943-1.373.943-2.304 0-.907-.315-1.663-.943-2.268-.627-.605-1.42-.908-2.374-.908-.931 0-1.722.303-2.373.908"/></g><g clip-path="url(#qgvoa)"><path d="M65.032 57.246c.326-.36.779-.541 1.362-.541.558 0 1.006.181 1.343.541.338.362.506.82.506 1.379 0 .582-.168 1.047-.506 1.396-.337.349-.785.524-1.343.524-.583 0-1.036-.175-1.362-.524-.326-.349-.488-.814-.488-1.396 0-.559.162-1.017.488-1.379m1.362 4.556c.953 0 1.739-.297 2.356-.89.616-.594.925-1.356.925-2.287 0-.931-.309-1.699-.925-2.304-.617-.605-1.403-.908-2.356-.908-.932 0-1.728.303-2.392.908-.663.605-.994 1.373-.994 2.304 0 .931.331 1.693.994 2.287.664.593 1.46.89 2.392.89"/></g><g clip-path="url(#qgvoa)"><path d="M64.822 69.133c0 .209.081.361.245.453a.641.641 0 0 0 .419.141c.279 0 .488-.106.628-.315l9.74-12.846a.742.742 0 0 0 .174-.489.59.59 0 0 0-.192-.454.682.682 0 0 0-.471-.174c-.233 0-.444.104-.629.313L65.031 68.61a.793.793 0 0 0-.209.523"/></g></g></g></g></g></svg>