<svg xmlns="http://www.w3.org/2000/svg" width="142" height="142" viewBox="0 0 142 142"><defs><clipPath id="khu3a"><path d="M33 114.553V27h76.772v87.553z"/></clipPath></defs><g><g><g><path fill="#fbfbfb" d="M71 0c39.212 0 71 31.788 71 71s-31.788 71-71 71S0 110.212 0 71 31.788 0 71 0z"/></g><g><g><g/><g clip-path="url(#khu3a)"><path d="M71.402 28.814c9.78 0 17.735 7.956 17.735 17.736 0 9.78-7.956 17.735-17.735 17.735-9.78 0-17.736-7.956-17.736-17.735 0-9.78 7.956-17.736 17.736-17.736M54.428 40.937c0 .5-.406.906-.906.906h-1.073a19.464 19.464 0 0 0-.597 4.707c0 1.608.217 3.164.585 4.66h1.022a.907.907 0 0 1 0 1.814h-.482c2.68 7.603 9.917 13.075 18.425 13.075 8.507 0 15.743-5.472 18.424-13.075h-.512a.907.907 0 0 1 0-1.813h1.052c.368-1.497.585-3.053.585-4.661 0-1.625-.221-3.196-.597-4.707h-1.102a.907.907 0 0 1 0-1.813h.557C87.116 32.45 79.893 27 71.402 27c-8.492 0-15.715 5.45-18.408 13.03h.528c.5 0 .906.405.906.907"/></g><g clip-path="url(#khu3a)"><path d="M47.93 55.715a.9.9 0 0 1 .426.857c.003-.027.012-.053.012-.081v-3.466h5.09a.907.907 0 0 0 0-1.814h-5.997c-.5 0-.906.406-.906.907v2.571l-11.116-8.247 11.24-8.161v2.656c0 .5.407.906.908.906h5.934a.907.907 0 0 0 0-1.813H48.493v-3.528a.907.907 0 0 0-1.439-.734L33.374 45.7a.905.905 0 0 0-.007 1.462l12.892 9.565.426-.705a.905.905 0 0 1 1.245-.307"/></g><g clip-path="url(#khu3a)"/><g clip-path="url(#khu3a)"><path d="M48.564 57.661"/></g><g clip-path="url(#khu3a)"><path d="M94.753 56.655"/></g><g clip-path="url(#khu3a)"><path d="M109.772 46.428c0-.288-.14-.56-.374-.729l-13.68-9.932a.905.905 0 0 0-1.44.734v3.528h-5.026a.907.907 0 1 0 0 1.814h5.934c.5 0 .906-.406.906-.907V38.28l11.24 8.16-11.114 8.248v-2.57c0-.501-.407-.907-.907-.907h-5.998a.907.907 0 0 0 0 1.813h5.091v3.466c0 .025.008.049.01.073a.902.902 0 0 1 1.678-.533l.413.703 12.9-9.571a.91.91 0 0 0 .367-.734"/></g><g clip-path="url(#khu3a)"><path d="M94.85 55.708a.904.904 0 0 0-.423.946.894.894 0 0 0 .092.267c.005.01.005.02.01.029l10.69 18.185h-6.848c-.5 0-.907.406-.907.907v34.73c0 1.541-1.62 1.906-1.974 1.968H67.171v.861c0 .5-.406.907-.906.907H51.647a.907.907 0 0 1-.907-.907v-.861H47.4c-.892 0-1.545-.21-1.94-.622-.49-.51-.465-1.226-.463-1.284V76.042c0-.5-.406-.907-.907-.907h-6.826l10.971-18.17.004-.006c.002-.004.002-.01.004-.013a.882.882 0 0 0 .115-.374.9.9 0 0 0-1.672-.551l-.426.706-11.38 18.846a.905.905 0 0 0 .777 1.376h7.526l.002 33.826c-.01.15-.069 1.493.939 2.57.75.801 1.852 1.208 3.276 1.208H95.56c.04 0 .08-.003.12-.008 1.245-.166 3.598-1.168 3.598-3.772V76.949h7.526a.906.906 0 0 0 .782-1.367l-11.081-18.85-.413-.702a.908.908 0 0 0-1.241-.322"/></g><g clip-path="url(#khu3a)"><path d="M52.554 87.709a3.143 3.143 0 0 1 3.138-3.14h6.526c1.73 0 3.14 1.409 3.14 3.14v24.985H52.554zm9.664-4.953h-6.526a4.958 4.958 0 0 0-4.952 4.953V113.6c0 .5.407.907.907.907h14.618c.5 0 .906-.406.906-.907V87.709a4.959 4.959 0 0 0-4.952-4.953"/></g><g clip-path="url(#khu3a)"><path d="M90.093 87.709v6.978H77.29V87.71c0-1.731 1.41-3.14 3.14-3.14h6.526a3.143 3.143 0 0 1 3.138 3.14m-14.617 0v7.885c0 .5.406.907.906.907H91c.5 0 .907-.406.907-.907V87.71a4.958 4.958 0 0 0-4.952-4.953h-6.526a4.959 4.959 0 0 0-4.953 4.953"/></g><g clip-path="url(#khu3a)"><path d="M72.12 46.745a7.767 7.767 0 0 1 2.033.885c.627.389.942.984.942 1.788 0 .728-.264 1.35-.79 1.863-.529.515-1.257.823-2.184.923zm-3.501-2.749c-.553-.3-.83-.803-.83-1.506 0-.728.265-1.299.791-1.713.527-.414 1.231-.66 2.11-.734v4.781c-.83-.25-1.52-.527-2.071-.828m-.678 8.98c.803.389 1.72.621 2.749.696v1.995c0 .553.237.83.714.83s.717-.277.717-.83v-1.995c1.354-.126 2.465-.552 3.331-1.28.866-.727 1.299-1.707 1.299-2.937 0-.978-.25-1.744-.753-2.296a4.918 4.918 0 0 0-1.826-1.261c-.715-.289-1.4-.52-2.051-.698v-5.157c.652.075 1.185.219 1.6.432.414.214.745.409.998.584.199.176.4.264.602.264.2 0 .376-.088.526-.264.151-.175.226-.35.226-.527 0-.251-.1-.452-.3-.602-.403-.352-.899-.653-1.488-.904-.59-.251-1.312-.4-2.164-.452v-1.016c0-.552-.24-.829-.717-.829s-.714.277-.714.829v1.016c-1.407.126-2.511.54-3.314 1.243-.804.703-1.205 1.607-1.205 2.71 0 .804.22 1.45.66 1.94.438.49 1.002.884 1.693 1.186.69.3 1.412.54 2.166.715v5.798a6.144 6.144 0 0 1-1.94-.602c-.59-.3-1.048-.653-1.374-1.054-.201-.175-.414-.264-.64-.264a.9.9 0 0 0-.603.225.753.753 0 0 0-.263.603c0 .176.063.352.189.527.45.527 1.079.986 1.882 1.374"/></g></g></g></g></g></svg>