<?xml version="1.0" encoding="utf-8"?>
<!-- Generator: Adobe Illustrator 26.0.1, SVG Export Plug-In . SVG Version: 6.00 Build 0)  -->
<svg version="1.1" id="Layer_1" xmlns="http://www.w3.org/2000/svg" xmlns:xlink="http://www.w3.org/1999/xlink" x="0px" y="0px"
	 viewBox="0 0 34.8 34.8" style="enable-background:new 0 0 34.8 34.8;" xml:space="preserve">
<style type="text/css">
	.st0{fill:#1A1A1A;}
	.st1{fill:none;stroke:#191919;stroke-width:2;stroke-linecap:round;stroke-linejoin:round;}
</style>
<g id="Group_114" transform="translate(1 1)">
	<g id="Group_113" transform="translate(6.076 6.167)">
		<path id="Path_11" class="st0" d="M0,5.5c0.1-1,0.4-1.9,0.9-2.7C2,1,3.9,0,6,0.1c2.9-0.1,5.8-0.1,8.7,0c1.9-0.1,3.8,0.8,4.9,2.4
			c0.7,1.1,1.1,2.3,1.1,3.6c0,2.8,0.1,5.6,0,8.3c0.1,2.2-1,4.2-2.9,5.3c-1,0.5-2,0.8-3.1,0.8c-2.9,0-5.7,0.1-8.6,0
			C4,20.6,2,19.5,0.9,17.8C0.4,16.9,0.1,16,0,15V5.5z M10.4,2C8.9,2,7.5,2,6.1,2c-2.2,0.1-3.6,1.1-4,3C2,5.4,2,5.8,2,6.3
			c0,2.7,0,5.4,0,8.1s1.4,4.1,4,4.2c2.9,0.1,5.8,0.1,8.7,0c1.8,0.1,3.5-1.1,3.8-3c0.1-0.3,0.1-0.7,0.1-1c0-3.1,0.2-6.1-0.1-9.2
			c-0.1-1.7-1.5-3.1-3.2-3.2C13.7,2,12,1.9,10.4,2z"/>
		<path id="Path_12" class="st0" d="M15.7,10.3c0,3-2.4,5.4-5.4,5.4c-3,0-5.4-2.4-5.4-5.4s2.4-5.4,5.4-5.4c0,0,0,0,0,0
			C13.3,5,15.7,7.4,15.7,10.3z M13.7,10.3c0-1.9-1.5-3.4-3.3-3.4C8.5,6.8,7,8.3,7,10.2s1.5,3.4,3.3,3.4c0,0,0,0,0,0
			C12.2,13.6,13.7,12.1,13.7,10.3z"/>
		<path id="Path_13" class="st0" d="M15.8,3.5c0.7,0,1.3,0.6,1.2,1.3c0,0.7-0.6,1.3-1.3,1.2c-0.7,0-1.2-0.6-1.2-1.3
			C14.5,4.1,15.1,3.5,15.8,3.5z"/>
	</g>
	<path id="Rectangle_90" class="st1" d="M3,0h26.8c1.7,0,3,1.3,3,3v26.8c0,1.7-1.3,3-3,3H3c-1.7,0-3-1.3-3-3V3C0,1.3,1.3,0,3,0z"/>
</g>
</svg>
