<?xml version="1.0" encoding="utf-8"?>
<!-- Generator: Adobe Illustrator 26.0.1, SVG Export Plug-In . SVG Version: 6.00 Build 0)  -->
<svg version="1.1" id="Layer_1" xmlns="http://www.w3.org/2000/svg" xmlns:xlink="http://www.w3.org/1999/xlink" x="0px" y="0px"
	 viewBox="0 0 34.8 34.8" style="enable-background:new 0 0 34.8 34.8;" xml:space="preserve">
<style type="text/css">
	.st0{fill:#191919;}
	.st1{fill:none;stroke:#191919;stroke-width:2;stroke-linecap:round;stroke-linejoin:round;}
</style>
<g id="Group_108" transform="translate(1 1)">
	<g id="Group_107" transform="translate(8.13 8.13)">
		<path id="Path_6" class="st0" d="M3.7,1.8c0.1,1-0.7,1.8-1.6,1.8c-0.1,0-0.1,0-0.2,0C0.9,3.7,0,3,0,2c0,0,0,0,0-0.1
			C0,0.9,0.8,0,1.8,0c0,0,0,0,0,0c1,0,1.8,0.7,1.8,1.7C3.7,1.8,3.7,1.8,3.7,1.8z"/>
		<rect id="Rectangle_86" x="0" y="4.6" class="st0" width="3.7" height="12"/>
		<path id="Path_7" class="st0" d="M12.5,4.8c-1.4,0-2.7,0.7-3.5,1.8H8.9L8.8,5.1H5.4c0,1,0.1,2.2,0.1,3.6v7.9h3.7V10
			c0-0.3,0-0.6,0.1-0.9c0.2-0.8,0.9-1.4,1.8-1.5c1.3,0,1.8,1.1,1.8,2.6v6.4h3.7V9.8C16.6,6.4,14.8,4.8,12.5,4.8z"/>
	</g>
	<path id="Rectangle_87" class="st1" d="M3,0h26.8c1.7,0,3,1.3,3,3v26.8c0,1.7-1.3,3-3,3H3c-1.7,0-3-1.3-3-3V3C0,1.3,1.3,0,3,0z"/>
</g>
</svg>
