<?xml version="1.0" encoding="utf-8"?>
<!-- Generator: Adobe Illustrator 25.4.1, SVG Export Plug-In . SVG Version: 6.00 Build 0)  -->
<svg version="1.1" id="Layer_1" xmlns="http://www.w3.org/2000/svg" xmlns:xlink="http://www.w3.org/1999/xlink" x="0px" y="0px"
	 viewBox="0 0 248.8 70.2" style="enable-background:new 0 0 248.8 70.2;" xml:space="preserve">
<style type="text/css">
	.st0{fill:#1A1A1A;}
	.st1{fill:#48DC95;}
</style>
<g id="Layer_2_00000174568125904162544330000002937237297695921565_">
	<g id="Layer_1-2">
		<path class="st0" d="M25.6,20c-4.5,0-8.9,1.7-12.3,4.8v-4.3H2.2v48h11.4V43.8c0-8.9,4.8-13.3,11.9-13.3s12,4.3,12,13.3v24.6h11.4
			V43.8C48.9,28,39.5,20,25.6,20z"/>
		<path class="st0" d="M54.4,45.3c0-15,10.5-25.4,25.5-25.4c14.8,0,25.1,10,25.1,25.3v23.2H94.6v-9.3c-2.9,7-9.2,10.5-16.7,10.5
			C66.5,69.6,54.4,61.4,54.4,45.3z M93.7,44.8c0-8.4-5.5-14.3-13.9-14.3s-14,5.9-14,14.3s5.6,14.3,14,14.3S93.7,53.1,93.7,44.8z"/>
		<path class="st0" d="M110.5,44.3c0-16.1,12-24.4,23.5-24.4c6.8,0,12.4,2.9,15.7,8.2V0.6h11.4v43.8c0,15.2-10.3,25.2-25.2,25.2
			C121,69.6,110.5,59.4,110.5,44.3z M149.8,44.8c0-8.4-5.5-14.3-13.9-14.3s-14,5.9-14,14.3s5.6,14.3,14,14.3S149.8,53.1,149.8,44.8
			L149.8,44.8z"/>
		<path class="st0" d="M166.7,45.3c0-15,10.5-25.4,25.5-25.4c14.8,0,25.2,10,25.2,25.3v23.2h-10.4v-9.3c-2.9,7-9.2,10.5-16.7,10.5
			C178.7,69.6,166.7,61.4,166.7,45.3z M205.9,44.8c0-8.4-5.5-14.3-13.9-14.3c-8.4,0-14,5.9-14,14.3s5.6,14.3,14,14.3
			C200.4,59.1,205.9,53.1,205.9,44.8z"/>
		<path class="st1" d="M231.2,48h10.5c2.8,0,4.9,2.2,4.9,4.9v10.6c0,2.8-2.2,4.9-4.9,4.9h-10.5c-2.8,0-4.9-2.2-4.9-4.9V52.9
			C226.3,50.2,228.5,48,231.2,48z"/>
	</g>
</g>
</svg>
