<svg xmlns="http://www.w3.org/2000/svg" width="142" height="142" viewBox="0 0 142 142"><defs><clipPath id="geqga"><path d="M24 112.603V29h94.08v83.603z"/></clipPath></defs><g><g><g><path fill="#fbfbfb" d="M71 0c39.212 0 71 31.788 71 71s-31.788 71-71 71S0 110.212 0 71 31.788 0 71 0z"/></g><g><g><g/><g clip-path="url(#geqga)"><path d="M92.35 30.738c.016-.002 1.503-.138 2.547.807.748.678 1.127 1.778 1.127 3.27v40.848a.866.866 0 0 0 1.731 0V34.816c0-2.014-.577-3.552-1.715-4.57-1.503-1.346-3.453-1.26-3.818-1.235H49.663c-1.534 0-2.766.466-3.663 1.385-1.457 1.494-1.423 3.63-1.421 3.7v37.143a.866.866 0 0 0 1.73 0v-37.16c0-.015-.01-1.52.938-2.483.558-.567 1.372-.854 2.416-.854H92.26c.028 0 .062-.002.09-.004"/></g><g clip-path="url(#geqga)"><path d="M86.6 42.901H55.426a.865.865 0 1 0 0 1.731h31.176a.866.866 0 0 0 0-1.73"/></g><g clip-path="url(#geqga)"><path d="M86.6 53.705H55.426a.865.865 0 1 0 0 1.731h31.176a.866.866 0 0 0 0-1.73"/></g><g clip-path="url(#geqga)"><path d="M87.466 65.065a.866.866 0 0 0-.865-.865H55.425a.865.865 0 1 0 0 1.73h31.176a.866.866 0 0 0 .865-.865"/></g><g clip-path="url(#geqga)"><path d="M41.43 92.254a.865.865 0 0 1 1.21.177l.396.53 2.605-.845.072-1.375a.848.848 0 0 1 .252-.55l-4.511 1.462a.606.606 0 0 1-.762-.389l-9.256-28.548-.835.287a.86.86 0 0 1-1.016-.382l9.46 29.178a2.324 2.324 0 0 0 2.182 1.612.86.86 0 0 1 .203-1.157"/></g><g clip-path="url(#geqga)"><path d="M33.31 42.767a2.32 2.32 0 0 0-1.16-1.36 2.316 2.316 0 0 0-1.782-.14l-4.753 1.54a2.338 2.338 0 0 0-1.5 2.942l5.364 16.547a.853.853 0 0 1 .56-.93l.863-.296-5.142-15.855a.607.607 0 0 1 .39-.762l4.752-1.54a.609.609 0 0 1 .461.036.6.6 0 0 1 .301.352l5.109 15.757.469-.161a.864.864 0 1 1 .56 1.637l-.495.17 9.288 28.647a.602.602 0 0 1-.037.462.571.571 0 0 1-.108.136c.058-.008.113-.028.172-.025a.866.866 0 0 1 .819.91l-.03.57c.284-.213.523-.48.69-.805.282-.555.333-1.189.14-1.782z"/></g><g clip-path="url(#geqga)"><path d="M30.32 63.05a.86.86 0 0 0 .28-.047l.836-.286 5.87-2.013.497-.17a.864.864 0 1 0-.561-1.637l-.47.161-5.87 2.012-.862.296a.852.852 0 0 0-.56.93c.007.057.003.113.022.17.02.056.053.105.083.155a.86.86 0 0 0 .735.43"/></g><g clip-path="url(#geqga)"><path d="M46.622 89.924c-.06-.003-.114.017-.172.026a.856.856 0 0 0-.485.242.845.845 0 0 0-.252.55l-.073 1.375-.213 4.052-2.392-3.209-.395-.53a.867.867 0 0 0-1.21-.176.859.859 0 0 0-.203 1.157c.011.018.013.037.025.055l4.22 5.659a.865.865 0 0 0 1.557-.472l.382-7.25.03-.57a.866.866 0 0 0-.819-.91"/></g><g clip-path="url(#geqga)"><path d="M78.679 100.005H50.795a.866.866 0 0 0 0 1.73H78.68a.866.866 0 0 0 0-1.73"/></g><g clip-path="url(#geqga)"><path d="M100.718 110.872c-8.62 0-15.63-7.012-15.63-15.63 0-8.62 7.01-15.63 15.63-15.63 8.618 0 15.63 7.01 15.63 15.63 0 8.618-7.012 15.63-15.63 15.63m0-32.992c-9.574 0-17.362 7.788-17.362 17.362 0 9.572 7.788 17.361 17.362 17.361 9.573 0 17.36-7.789 17.36-17.361 0-9.574-7.787-17.362-17.36-17.362"/></g><g clip-path="url(#geqga)"><path d="M100.748 85.952a1.183 1.183 0 1 0 0-2.366 1.183 1.183 0 0 0 0 2.366"/></g><g clip-path="url(#geqga)"><path d="M100.748 104.986a1.183 1.183 0 1 0 0 2.366 1.183 1.183 0 0 0 0-2.366"/></g><g clip-path="url(#geqga)"><path d="M90.408 94.234a1.183 1.183 0 1 0 0 2.366 1.183 1.183 0 0 0 0-2.366"/></g><g clip-path="url(#geqga)"><path d="M111.346 94.183a1.183 1.183 0 1 0 0 2.366 1.183 1.183 0 0 0 0-2.366"/></g><g clip-path="url(#geqga)"><path d="M101.973 95.64v-5.47a.865.865 0 1 0-1.73 0v5.86c0 .247.106.483.291.647l6.276 5.562a.866.866 0 0 0 1.149-1.296z"/></g><g clip-path="url(#geqga)"><path d="M69.47 86.39c.623.172 1.2.424 1.737.756.536.332.804.842.804 1.528 0 .622-.225 1.153-.675 1.592-.45.44-1.072.702-1.866.788zm-2.99-2.348c-.472-.258-.708-.686-.708-1.287 0-.621.226-1.11.675-1.463.45-.353 1.05-.563 1.801-.628v4.086c-.707-.215-1.298-.45-1.768-.708m2.38 10.679c.406 0 .61-.237.61-.708v-1.705c1.158-.107 2.107-.472 2.847-1.093.74-.623 1.11-1.459 1.11-2.51 0-.835-.214-1.49-.644-1.962a4.207 4.207 0 0 0-1.56-1.077 15.505 15.505 0 0 0-1.753-.595v-4.407c.558.065 1.014.188 1.368.37.353.183.638.35.852.5.172.15.343.224.514.224a.576.576 0 0 0 .45-.225c.13-.15.194-.3.194-.45a.614.614 0 0 0-.258-.515 4.739 4.739 0 0 0-1.27-.772c-.504-.213-1.12-.342-1.85-.386v-.868c0-.471-.204-.708-.61-.708-.408 0-.612.237-.612.708v.868c-1.2.108-2.144.462-2.83 1.062-.687.6-1.03 1.373-1.03 2.316 0 .686.188 1.238.563 1.656.375.418.858.756 1.448 1.013.59.257 1.206.461 1.85.611v4.953a5.224 5.224 0 0 1-1.657-.514c-.504-.258-.896-.558-1.174-.901a.82.82 0 0 0-.547-.225.77.77 0 0 0-.514.193.643.643 0 0 0-.225.515c0 .15.053.3.16.45.387.45.922.842 1.609 1.174.686.333 1.468.53 2.347.595v1.705c0 .471.204.708.611.708"/></g></g></g></g></g></svg>