<svg xmlns="http://www.w3.org/2000/svg" width="142" height="142" viewBox="0 0 142 142"><defs><clipPath id="yp9oa"><path d="M17 109.798V33h107.765v76.798z"/></clipPath></defs><g><g><g><path fill="#fbfbfb" d="M71 0c39.212 0 71 31.788 71 71s-31.788 71-71 71S0 110.212 0 71 31.788 0 71 0z"/></g><g><g><g/><g clip-path="url(#yp9oa)"><path d="M70.423 68.688c-9.373 0-16.999-7.626-16.999-16.999 0-9.373 7.626-16.997 17-16.997 9.372 0 16.998 7.624 16.998 16.997 0 9.373-7.626 17-16.999 17m18.69-17C89.113 41.384 80.73 33 70.423 33c-10.305 0-18.69 8.384-18.69 18.69 0 10.306 8.385 18.69 18.69 18.69 10.306 0 18.69-8.384 18.69-18.69"/></g><g clip-path="url(#yp9oa)"><path d="M45.231 98.888c-.125-.077-12.547-7.794-15.13-11.67-2.652-3.977-11.171-21.744-11.228-21.854-.038-.104-.91-2.571 1.48-4.124.582-.38 1.171-.48 1.805-.307 1.574.428 3.038 2.442 3.465 3.296.404.807 8.142 13.233 9 13.876.623.467 5.282 3.212 5.812 3.523a.847.847 0 0 0 1.006-1.347c-.628-.59-2.251-2.468-2.215-4.06.014-.623.285-1.155.83-1.621 2.53-2.167 5.516.737 5.664.883L57.702 86.59l1.197-1.197-12.007-11.127c-1.443-1.443-4.96-3.5-7.937-.948-.919.786-1.397 1.753-1.42 2.873-.015.685.15 1.361.408 1.991-1.134-.68-2.069-1.249-2.25-1.382-.722-.747-7.947-12.109-8.557-13.327-.473-.946-2.209-3.54-4.534-4.172-1.093-.296-2.19-.117-3.171.521-2.84 1.846-2.642 4.825-2.112 6.205.352.736 8.656 18.054 11.374 22.13 2.612 3.918 13.618 10.9 15.417 12.026l1.21-1.21c-.031-.028-.053-.062-.089-.084"/></g><g clip-path="url(#yp9oa)"><path d="M50.977 100.514a1.337 1.337 0 1 0 0 2.675 1.337 1.337 0 0 0 0-2.675"/></g><g clip-path="url(#yp9oa)"><path d="M63.23 84.887c-1.02-1.023-2.803-1.023-3.824 0l-.506.506-1.197 1.197L45.32 98.972l-1.211 1.21-.047.047a2.69 2.69 0 0 0-.792 1.912c0 .723.282 1.402.793 1.912l4.953 4.953c.51.511 1.19.792 1.912.792s1.402-.28 1.912-.792l15.343-15.342a2.708 2.708 0 0 0 0-3.824zm3.757 7.581l-15.342 15.343a1.036 1.036 0 0 1-1.432 0l-4.953-4.954a1.004 1.004 0 0 1-.297-.716c0-.27.106-.525.297-.716l15.342-15.342c.191-.191.446-.296.716-.296.27 0 .525.105.716.296l4.953 4.953a1.013 1.013 0 0 1 0 1.432"/></g><g clip-path="url(#yp9oa)"><path d="M122.327 59.821c-.982-.637-2.078-.815-3.172-.52-2.324.631-4.061 3.225-4.533 4.17-.61 1.219-7.835 12.579-8.503 13.282-.21.156-1.162.74-2.305 1.427.258-.63.423-1.305.408-1.99-.024-1.12-.501-2.086-1.42-2.874-2.977-2.552-6.494-.494-7.915.927L82.86 85.393l1.196 1.197L96.06 75.463c.124-.124 3.111-3.028 5.64-.863.545.466.816.998.83 1.623.036 1.59-1.586 3.469-2.215 4.058a.846.846 0 0 0 1.007 1.347c.53-.311 5.189-3.055 5.812-3.523.86-.644 8.597-13.07 9-13.876.426-.854 1.891-2.87 3.464-3.296.631-.174 1.223-.072 1.806.308 2.39 1.552 1.518 4.02 1.509 4.055-.086.178-8.605 17.945-11.257 21.923-2.583 3.875-15.005 11.592-15.13 11.669-.037.022-.058.057-.088.083l1.21 1.211c1.797-1.124 12.804-8.107 15.416-12.025 2.717-4.076 11.022-21.395 11.403-22.195.5-1.316.698-4.294-2.14-6.14"/></g><g clip-path="url(#yp9oa)"><path d="M90.78 100.514a1.337 1.337 0 1 0 0 2.675 1.337 1.337 0 0 0 0-2.675"/></g><g clip-path="url(#yp9oa)"><path d="M84.055 86.59l-1.197-1.197-.507-.506c-1.02-1.022-2.802-1.022-3.824 0l-4.953 4.953c-.511.51-.793 1.19-.793 1.912s.282 1.401.793 1.912l15.342 15.343c.51.51 1.19.791 1.912.791.723 0 1.402-.28 1.913-.791l4.952-4.954c.511-.51.793-1.19.793-1.912s-.282-1.401-.793-1.912l-.045-.046-1.211-1.21zm12.443 16.267l-4.953 4.953a1.035 1.035 0 0 1-1.433 0L74.77 92.468a1.014 1.014 0 0 1 0-1.432l4.953-4.953a1.011 1.011 0 0 1 1.432 0l15.343 15.342c.19.191.296.446.296.716 0 .271-.105.525-.296.716"/></g><g clip-path="url(#yp9oa)"><path d="M77.141 43.285a.737.737 0 0 0-.242-.571.849.849 0 0 0-.593-.22c-.292 0-.556.132-.79.396l-12.21 16.162a.996.996 0 0 0-.263.659c0 .263.102.453.307.57a.82.82 0 0 0 .527.176c.352 0 .615-.132.79-.395L76.922 43.9a.93.93 0 0 0 .22-.615"/></g><g clip-path="url(#yp9oa)"><path d="M77.624 58.108c-.41.454-.98.68-1.712.68-.703 0-1.26-.226-1.67-.68-.41-.453-.615-1.047-.615-1.78 0-.702.205-1.273.615-1.712.41-.44.967-.658 1.67-.658.731 0 1.302.219 1.712.658.41.44.615 1.01.615 1.712 0 .733-.205 1.327-.615 1.78m-1.712-5.776c-1.172 0-2.168.382-2.988 1.142-.82.762-1.229 1.713-1.229 2.854 0 1.172.41 2.138 1.23 2.9.819.76 1.815 1.141 2.987 1.141 1.2 0 2.195-.38 2.986-1.141.79-.762 1.186-1.728 1.186-2.9 0-1.141-.396-2.092-1.186-2.854-.79-.76-1.786-1.142-2.986-1.142"/></g><g clip-path="url(#yp9oa)"><path d="M62.692 46.491c0-.703.205-1.28.615-1.735.41-.453.981-.68 1.713-.68.703 0 1.266.227 1.69.68.425.455.637 1.032.637 1.735 0 .733-.212 1.318-.637 1.757-.424.44-.987.659-1.69.659-.732 0-1.304-.22-1.713-.66-.41-.438-.615-1.023-.615-1.756m5.292 2.877c.776-.747 1.164-1.706 1.164-2.877 0-1.17-.388-2.137-1.164-2.898-.775-.762-1.764-1.142-2.964-1.142-1.172 0-2.174.38-3.009 1.142-.834.76-1.251 1.728-1.251 2.898 0 1.172.417 2.13 1.251 2.877.835.746 1.837 1.12 3.009 1.12 1.2 0 2.189-.374 2.964-1.12"/></g></g></g></g></g></svg>