<?xml version="1.0" encoding="utf-8"?>
<!-- Generator: Adobe Illustrator 26.0.1, SVG Export Plug-In . SVG Version: 6.00 Build 0)  -->
<svg version="1.1" id="Layer_1" xmlns="http://www.w3.org/2000/svg" xmlns:xlink="http://www.w3.org/1999/xlink" x="0px" y="0px"
	 viewBox="0 0 34.8 34.8" style="enable-background:new 0 0 34.8 34.8;" xml:space="preserve">
<style type="text/css">
	.st0{fill:#1A1A1A;}
	.st1{fill:none;stroke:#191919;stroke-width:2;stroke-linecap:round;stroke-linejoin:round;}
</style>
<g id="Group_112" transform="translate(1 1)">
	<g id="Group_111" transform="translate(6.327 8.13)">
		<path id="Path_10" class="st0" d="M0,14.7c2.1,0.2,4.2-0.4,6-1.6c-0.4-0.1-0.7-0.2-1-0.3c-1.2-0.4-2.1-1.2-2.6-2.3
			c-0.2-0.4-0.1-0.4,0.3-0.4c0.4,0.1,0.9,0,1.3-0.1C3.2,9.8,2.6,9.5,2.1,9C1.3,8.3,0.8,7.3,0.8,6.3c0-0.4,0-0.5,0.4-0.3
			C1.6,6.2,2,6.3,2.4,6.3C2.1,6,1.8,5.7,1.6,5.4C0.7,4.2,0.5,2.6,1.1,1.2c0.2-0.4,0.2-0.4,0.5-0.1c2,2.3,4.7,3.7,7.7,4
			c0.5,0,0.5,0,0.5-0.5c-0.2-1.7,0.7-3.3,2.2-4.1c1.5-0.8,3.4-0.6,4.7,0.6c0.2,0.2,0.5,0.3,0.8,0.2c0.6-0.2,1.3-0.4,1.8-0.7
			c0.1,0,0.2-0.1,0.3-0.1c-0.3,0.8-0.8,1.6-1.5,2.1c0.7-0.1,1.4-0.3,2-0.5c0,0.2-0.1,0.4-0.2,0.5c-0.4,0.5-0.9,1-1.4,1.4
			c-0.2,0.2-0.4,0.4-0.3,0.7c0,2.7-0.8,5.3-2.5,7.4c-1.9,2.5-4.7,4.1-7.8,4.5c-2.6,0.3-5.2-0.2-7.5-1.5c-0.1,0-0.2-0.1-0.2-0.2
			C0.1,14.8,0,14.7,0,14.7z"/>
	</g>
	<path id="Rectangle_89" class="st1" d="M3,0h26.8c1.7,0,3,1.3,3,3v26.8c0,1.7-1.3,3-3,3H3c-1.7,0-3-1.3-3-3V3C0,1.3,1.3,0,3,0z"/>
</g>
</svg>
