<?xml version="1.0" encoding="utf-8"?>
<!-- Generator: Adobe Illustrator 26.0.1, SVG Export Plug-In . SVG Version: 6.00 Build 0)  -->
<svg version="1.1" id="Layer_1" xmlns="http://www.w3.org/2000/svg" xmlns:xlink="http://www.w3.org/1999/xlink" x="0px" y="0px"
	 viewBox="0 0 34.8 34.8" style="enable-background:new 0 0 34.8 34.8;" xml:space="preserve">
<style type="text/css">
	.st0{fill:#191919;}
	.st1{fill:none;stroke:#191919;stroke-width:2;stroke-linecap:round;stroke-linejoin:round;}
</style>
<g id="Group_110" transform="translate(1 1)">
	<g id="Group_109" transform="translate(6.032 8.153)">
		<path id="Path_8" d="M14.5,8.2c0,0,0,0.1,0,0.1C14.5,8.3,14.5,8.2,14.5,8.2z"/>
		<path id="Path_9" class="st0" d="M10.7,0C0.2,0,0,0.9,0,8.3s0.2,8.3,10.7,8.3s10.7-0.9,10.7-8.3S21.3,0,10.7,0z M14.2,8.8
			l-4.8,2.3c-0.3,0.1-0.6,0-0.8-0.3c0-0.1-0.1-0.2-0.1-0.3V6c0-0.3,0.3-0.6,0.6-0.6c0.1,0,0.2,0,0.2,0.1l4.8,2.2
			c0.2,0.1,0.3,0.2,0.3,0.4c0,0,0,0.1,0,0.1C14.5,8.5,14.4,8.7,14.2,8.8z"/>
	</g>
	<path id="Rectangle_88" class="st1" d="M3,0h26.8c1.7,0,3,1.3,3,3v26.8c0,1.7-1.3,3-3,3H3c-1.7,0-3-1.3-3-3V3C0,1.3,1.3,0,3,0z"/>
</g>
</svg>
